<?xml version="1.0"?>
<svg xmlns="http://www.w3.org/2000/svg" width="599" height="493" viewBox="0 0 599 493">
  <defs>
    <style>@import url(https://fonts.googleapis.com/css?family=Open+Sans:bold,italic,bolditalic%7CPT+Mono);@font-face{font-family:'PT Mono';font-weight:700;font-style:normal;src:local('PT MonoBold'),url(/font/PTMonoBold.woff2) format('woff2'),url(/font/PTMonoBold.woff) format('woff'),url(/font/PTMonoBold.ttf) format('truetype')}
    </style>
  </defs>
  <g id="combined" fill="none" fill-rule="evenodd" stroke="none" stroke-width="1">
    <g id="ifelse_task.svg">
      <path id="Path-1218-Copy" fill="#EE6B47" fill-rule="nonzero" d="M529.5 326.5v93h8l-9.5 19-9.5-19h8v-90h-82v-3h85zM372.5 131.5v126h8l-9.5 19-9.5-19h8v-123h-82v-3h85z"/>
      <g id="Rectangle-1-+-&#x41A;&#x43E;&#x440;&#x435;&#x43D;&#x44C;" transform="translate(180 4)">
        <rect id="Rectangle-1" width="78" height="28" x="1" y="1" fill="#FFF9EB" stroke="#E8C48E" stroke-width="2" rx="14"/>
        <text id="Begin" fill="#8A704D" font-family="OpenSans-Regular, Open Sans" font-size="14" font-weight="normal">
          <tspan x="26" y="20">Start</tspan>
        </text>
      </g>
      <g id="Rectangle-1-+-&#x41A;&#x43E;&#x440;&#x435;&#x43D;&#x44C;-Copy-2" transform="translate(0 243)">
        <rect id="Rectangle-1" width="131" height="49" x="1" y="1" fill="#FFF9EB" stroke="#E8C48E" stroke-width="2" rx="24.5"/>
        <text id="Canceled" fill="#8A704D" font-family="OpenSans-Regular, Open Sans" font-size="14" font-weight="normal">
          <tspan x="36.647" y="29">Abbruch</tspan>
        </text>
      </g>
      <g id="Rectangle-1-+-&#x41A;&#x43E;&#x440;&#x435;&#x43D;&#x44C;-Copy-5" transform="translate(150 438)">
        <rect id="Rectangle-1" width="131" height="49" x="1" y="1" fill="#FFF9EB" stroke="#E8C48E" stroke-width="2" rx="24.5"/>
        <text id="Canceled" fill="#8A704D" font-family="OpenSans-Regular, Open Sans" font-size="14" font-weight="normal">
          <tspan x="36.647" y="29">Abbruch</tspan>
        </text>
      </g>
      <g id="Rectangle-1-+-&#x41A;&#x43E;&#x440;&#x435;&#x43D;&#x44C;-Copy-6" transform="translate(458 438)">
        <rect id="Rectangle-1" width="131" height="49" x="1" y="1" fill="#FFF9EB" stroke="#E8C48E" stroke-width="2" rx="24.5"/>
        <text id="Welcome!" fill="#8A704D" font-family="OpenSans-Regular, Open Sans" font-size="14" font-weight="normal">
          <tspan x="32" y="29">Willkommen!</tspan>
        </text>
      </g>
      <g id="Rectangle-1-+-&#x41A;&#x43E;&#x440;&#x435;&#x43D;&#x44C;-Copy-4" transform="translate(154 243)">
        <rect id="Rectangle-1" width="131" height="49" x="1" y="1" fill="#FFF9EB" stroke="#E8C48E" stroke-width="2" rx="24.5"/>
        <text id="I-don't-know-you" fill="#8A704D" font-family="OpenSans-Regular, Open Sans" font-size="14" font-weight="normal">
          <tspan x="12.773" y="28">Ich kenne Sie nicht!</tspan>
        </text>
      </g>
      <g id="Rectangle-1-+-&#x41A;&#x43E;&#x440;&#x435;&#x43D;&#x44C;-Copy-7" transform="translate(296 438)">
        <rect id="Rectangle-1" width="147" height="49" x="1" y="1" fill="#FFF9EB" stroke="#E8C48E" stroke-width="2" rx="24.5"/>
        <text id="Wrong-password" fill="#8A704D" font-family="OpenSans-Regular, Open Sans" font-size="14" font-weight="normal">
          <tspan x="17" y="29">Falsches Passwort</tspan>
        </text>
      </g>
      <path id="Line" fill="#EE6B47" fill-rule="nonzero" d="M222 35v23.049l8 .001-9.5 19-9.5-19 8-.001V35h3z"/>
      <path id="Path-1218" fill="#EE6B47" fill-rule="nonzero" d="M131.691 131.367v3l-59.302-.001v85.181h8l-9.5 19-9.5-19h8v-88.18h62.302z"/>
      <path id="Path-1218-Copy-2" fill="#EE6B47" fill-rule="nonzero" d="M281.691 326.367v3l-59.307-.001-.319 90.139 8 .029-9.567 18.966-9.433-19.033 8 .027.324-91.633.005-1.494h62.297z"/>
      <g id="Rectangle-354-+-&#x41A;&#x430;&#x43A;&#x43E;&#x432;&#x43E;-&#x201C;&#x43E;&#x444;&#x438;&#x446;&#x438;&#x430;&#x43B;&#x44C;&#x43D;&#x43E;&#x435;&#x201D;" transform="translate(127 81)">
        <path id="Rectangle-354" fill="#FFF9EB" stroke="#E8C48E" stroke-width="2" d="M2.06 52l91.55 50.856L185.161 52 93.611 1.144 2.058 52z"/>
        <text id="Who's-there?" fill="#8A704D" font-family="OpenSans-Regular, Open Sans" font-size="14" font-weight="normal">
          <tspan x="65" y="55">Wer da?</tspan>
        </text>
      </g>
      <g id="Rectangle-354-+-&#x41A;&#x430;&#x43A;&#x43E;&#x432;&#x43E;-&#x201C;&#x43E;&#x444;&#x438;&#x446;&#x438;&#x430;&#x43B;&#x44C;&#x43D;&#x43E;&#x435;&#x201D;-Copy" transform="translate(277 276)">
        <path id="Rectangle-354" fill="#FFF9EB" stroke="#E8C48E" stroke-width="2" d="M2.06 52l91.55 50.856L185.161 52 93.611 1.144 2.058 52z"/>
        <text id="Password?" fill="#8A704D" font-family="OpenSans-Regular, Open Sans" font-size="14" font-weight="normal">
          <tspan x="60" y="55">Passwort?</tspan>
        </text>
      </g>
      <g id="Rectangle-356-+-&#x41E;&#x442;&#x43C;&#x435;&#x43D;&#x430;" transform="translate(39 191)">
        <path id="Rectangle-356" fill="#FFF" d="M0 2h60v20H0z"/>
        <text id="Cancel" fill="#8A704D" font-family="OpenSans-Regular, Open Sans" font-size="14" font-weight="normal">
          <tspan x="7.5" y="15">Abbruch</tspan>
        </text>
      </g>
      <g id="Rectangle-356-+-&#x41E;&#x442;&#x43C;&#x435;&#x43D;&#x430;-Copy" transform="translate(189 384)">
        <path id="Rectangle-356" fill="#FFF" d="M0 2h60v20H0z"/>
        <text id="Cancel" fill="#8A704D" font-family="OpenSans-Regular, Open Sans" font-size="14" font-weight="normal">
          <tspan x="7.5" y="15">Abbruch</tspan>
        </text>
      </g>
      <g id="Rectangle-356-Copy-+-&#x201C;&#x410;&#x434;&#x43C;&#x438;&#x43D;&#x201D;" transform="translate(341 191)">
        <path id="Rectangle-356-Copy" fill="#FFF" d="M0 2h60v20H0z"/>
        <text id="Admin" fill="#8A704D" font-family="OpenSans-Regular, Open Sans" font-size="14" font-weight="normal">
          <tspan x="7.703" y="15">Admin</tspan>
        </text>
      </g>
      <g id="Rectangle-356-Copy-+-&#x201C;&#x410;&#x434;&#x43C;&#x438;&#x43D;&#x201D;-Copy" transform="translate(493 384)">
        <path id="Rectangle-356-Copy" fill="#FFF" d="M7 2h60v20H7z"/>
        <text id="TheMaster" fill="#8A704D" font-family="OpenSans-Regular, Open Sans" font-size="14" font-weight="normal">
          <tspan x=".096" y="15">TheMaster</tspan>
        </text>
      </g>
      <path id="Line" fill="#EE6B47" fill-rule="nonzero" d="M223 182v42.56h8l-9.5 19-9.5-19h8V182h3z"/>
      <path id="Line-Copy-2" fill="#EE6B47" fill-rule="nonzero" d="M373 377v42.56h8l-9.5 19-9.5-19h8V377h3z"/>
      <g id="Rectangle-356-Copy-2-+-&#x201C;&#x410;&#x434;&#x43C;&#x438;&#x43D;&#x201D;-Copy" transform="translate(191 191)">
        <path id="Rectangle-356-Copy-2" fill="#FFF" d="M0 2h60v20H0z"/>
        <text id="Other" fill="#8A704D" font-family="OpenSans-Regular, Open Sans" font-size="14" font-weight="normal">
          <tspan x="9.996" y="15">Sonstige</tspan>
        </text>
      </g>
      <g id="Rectangle-356-Copy-2-+-&#x201C;&#x410;&#x434;&#x43C;&#x438;&#x43D;&#x201D;-Copy-Copy" transform="translate(341 384)">
        <path id="Rectangle-356-Copy-2" fill="#FFF" d="M0 2h60v20H0z"/>
        <text id="Other" fill="#8A704D" font-family="OpenSans-Regular, Open Sans" font-size="14" font-weight="normal">
          <tspan x="9.996" y="15">Sonstige</tspan>
        </text>
      </g>
    </g>
  </g>
</svg>
